<svg width="40" height="40" viewBox="0 0 40 40" fill="none" xmlns="http://www.w3.org/2000/svg">
<path d="M0 31.6641V35C0 37.7578 6.71875 40 15 40C23.2812 40 30 37.7578 30 35V31.6641C26.7734 33.9375 20.875 35 15 35C9.125 35 3.22656 33.9375 0 31.6641ZM25 10C33.2812 10 40 7.75781 40 5C40 2.24219 33.2812 0 25 0C16.7188 0 10 2.24219 10 5C10 7.75781 16.7188 10 25 10ZM0 23.4688V27.5C0 30.2578 6.71875 32.5 15 32.5C23.2812 32.5 30 30.2578 30 27.5V23.4688C26.7734 26.125 20.8672 27.5 15 27.5C9.13281 27.5 3.22656 26.125 0 23.4688ZM32.5 24.3281C36.9766 23.4609 40 21.8516 40 20V16.6641C38.1875 17.9453 35.5234 18.8203 32.5 19.3594V24.3281ZM15 12.5C6.71875 12.5 0 15.2969 0 18.75C0 22.2031 6.71875 25 15 25C23.2812 25 30 22.2031 30 18.75C30 15.2969 23.2812 12.5 15 12.5ZM32.1328 16.8984C36.8203 16.0547 40 14.3984 40 12.5V9.16406C37.2266 11.125 32.4609 12.1797 27.4453 12.4297C29.75 13.5469 31.4453 15.0469 32.1328 16.8984Z" fill="#61892F"/>
</svg>
